<?xml version="1.0" encoding="UTF-8"?>
<svg xmlns="http://www.w3.org/2000/svg" id="Livello_2" viewBox="0 0 361.54 128.72" fill="#8a8a8a">
  <g id="logo_SCIC">
    <polygon points="51.24 49.9 75.23 90.69 27.25 90.69 51.24 49.9"></polygon>
    <polygon points="0 44.48 24.29 2.68 48.19 44.48 0 44.48"></polygon>
    <polygon points="51.24 42.33 27.25 .98 75.23 .98 51.24 42.33"></polygon>
    <polygon points="54.51 44.48 78.28 2.68 102 44.48 54.51 44.48"></polygon>
    <polygon points="54.51 47.76 102 47.76 78.28 88.88 54.51 47.76"></polygon>
    <polygon points="24.29 88.88 48.19 47.76 0 47.76 24.29 88.88"></polygon>
    <path d="m124.24,60.71h-18.23s-2.42,30.93,38.04,29.98c22.02-.51,32.82-12.76,33.97-25.81,1.15-13.04-5.73-21.06-16.5-24.94-7.71-2.77-12.78-3.68-15.39-4.22-2.61-.54-12.79-2.01-15.83-4.9-2.96-2.8-3.07-6.64-1.69-9.03,1.2-2.07,4.41-5.55,14.2-5.33,9.79.22,13.66,4.62,15.07,12.62h17.52s1.9-13.71-11.64-23.07c-3.01-1.96-9.41-4.92-19.7-5.39-9.94-.44-19.8,2.05-26.88,7.67-4.43,3.25-9.74,11.21-8.49,22.14.37,3.31,1.58,10.39,9.25,15.51,5.29,3.51,13.06,5.66,18.5,6.91,4.27.98,19.97,2.5,21.6,9.03,1.63,6.53-2.12,9.9-5.6,11.26-3.48,1.36-9.85,3.05-18.66.49-8.11-2.36-9.53-12.94-9.53-12.94"></path>
    <path d="m237.81,61.95h20.24s-5.71,25.68-33.79,28.73c-5.52.6-23.51,1.2-35.8-14.58-11.83-14.64-10.01-35.47-9.47-39.28.54-3.81,5.01-35.73,39.72-36.78,15.13-.46,32.75,8.05,39.45,28.29h-20.89s-5.28-10.99-16.16-11.86c-10.88-.87-21.76,6.83-23.29,25.87-1.04,13.33,4.46,28.32,17.19,31.37,12.73,3.05,19.1-4.79,22.8-11.75"></path>
    <rect x="259.51" y="1.07" width="19.91" height="89.61"></rect>
    <path d="m341.19,61.93h20.24s-5.71,25.68-33.79,28.73c-5.52.6-23.5,1.2-35.8-14.58-11.83-14.64-10.01-35.47-9.47-39.28.54-3.81,5.01-35.73,39.72-36.78,15.13-.46,32.75,8.05,39.45,28.29h-20.89s-5.28-10.99-16.16-11.86c-10.88-.87-21.76,6.83-23.29,25.87-1.03,13.33,4.46,28.32,17.19,31.37,12.73,3.05,19.1-4.79,22.8-11.75"></path>
    <polygon points="264.75 100.38 268.85 100.38 263.2 126.97 260.53 126.97 260.31 128.05 272.3 128.05 272.52 126.97 268.68 126.97 274.2 100.38 276.92 100.38 277.09 99.3 264.97 99.3 264.75 100.38"></polygon>
    <path d="m287.47,106.49c-1.47.39-2.98.65-4.48.69l-1.04,4.22h-3.15l-.3,1.33h3.11l-2.24,10.03c-.34,1.46-.6,2.88-.6,3.27,0,1.85,1.72,2.67,3.36,2.67,2.46,0,5.09-1.33,6.86-6.11l-.95-.22c-.6,1.38-2.41,4.86-4.1,4.86-.56,0-.99-.3-.99-.9,0-.43.26-1.68.56-2.97l2.55-10.63h3.62l.3-1.33h-3.67l1.16-4.91Z"></path>
    <path d="m297.76,119.27c1.81-6.71,2.98-7.44,4.92-7.44s2.98,2.19,2.98,3.96c0,2.84-1.64,9.64-4.49,11.06-.69.34-1.38.77-2.16.77-1.64,0-3.45-.21-1.25-8.35m8.62-4.69h-.09c-.34-2.11-1.9-3.83-4.14-3.83-5.09,0-9.88,5.9-9.88,10.76,0,4.56,2.24,7.19,5.78,7.19,2.46,0,4.27-1.08,5.6-3.1.17,1.76,1.43,3.1,3.24,3.1,3.32,0,5.74-3.53,6.73-6.33l-.86-.3c-.52,1.16-2.5,4.73-3.88,4.73-.6,0-.86-.43-.86-.99,0-.69.35-1.81.73-3.31l2.8-11.15h-4.18l-.99,3.23Z"></path>
    <path d="m316.72,123.49c-.91,4.04.56,5.21,3.06,5.21,3.66,0,6-3.66,7.12-6.71l-1.03-.22c-.47,1.46-2.42,5.08-4.23,5.08-1.04,0-1.08-.6-.52-3.1l5.65-25.09-8.02.3-.3,1.08h3.45l-5.18,23.45Z"></path>
    <path d="m331.37,112.08l-2.55,11.06c-.26,1.12-.34,2.19-.34,2.58,0,1.98,1.38,2.75,3.11,2.97,1.51.17,3.15-.56,4.18-1.68,1.25-1.38,2.16-2.97,2.98-4.65l-.95-.34c-.82,1.38-2.29,4.78-4.14,4.78-.6,0-.95-.3-.95-.95,0-.48.39-1.72.6-2.63l2.89-12.39c-1.34,0-2.63.17-3.97.17h-3.97l-.3,1.08h3.41Zm6.29-9.64c0-1.33-1.25-2.45-2.5-2.45s-2.46,1.16-2.46,2.45,1.12,2.5,2.46,2.5,2.5-1.12,2.5-2.5"></path>
    <path d="m345.67,119.27c1.81-6.71,2.97-7.44,4.92-7.44s2.98,2.19,2.98,3.96c0,2.84-1.64,9.64-4.49,11.06-.69.34-1.38.77-2.15.77-1.64,0-3.45-.21-1.25-8.35m8.62-4.69h-.09c-.34-2.11-1.9-3.83-4.14-3.83-5.09,0-9.88,5.9-9.88,10.76,0,4.56,2.24,7.19,5.78,7.19,2.46,0,4.27-1.08,5.61-3.1.17,1.76,1.42,3.1,3.23,3.1,3.32,0,5.74-3.53,6.73-6.33l-.86-.3c-.52,1.16-2.5,4.73-3.88,4.73-.6,0-.86-.43-.86-.99,0-.69.34-1.81.73-3.31l2.8-11.15h-4.18l-.99,3.23Z"></path>
  </g>
</svg>
