<?xml version="1.0" encoding="UTF-8"?>
<svg xmlns="http://www.w3.org/2000/svg" id="Livello_2" viewBox="0 0 203.97 56.69" fill="#8a8a8a">
  <g id="Livello_1-2">
    <path class="cls-2" d="m11.85,33.82v10.95c0,1.93.48,2.76,1.79,2.76,1.03,0,1.79-.69,1.79-1.72v-9.37c0-2-.28-2.82-2.34-3.93l-7.92-4.41C1.31,25.97,0,22.87,0,18.05v-6.54C0,1.24,1.86,0,13.5,0,22.46,0,27,.69,27,8.13v11.71h-11.64v-7.99c0-1.93-.28-2.76-1.86-2.76-1.38,0-1.65,1.03-1.65,2.76v5.3c0,2,.34,2.82,2.34,3.93l7.3,3.93c4.41,2.34,5.51,5.23,5.51,9.64v12.74c0,2.89-.14,4.96-1.45,6.68-1.86,2.48-5.51,2.62-11.85,2.62-11.5,0-13.71-1.1-13.71-11.57v-11.3h11.85Z"></path>
    <path class="cls-2" d="m42.99,0c11.71,0,13.64,1.1,13.64,11.57v7.78h-11.85v-7.44c0-2-.34-2.76-1.93-2.76-1.45,0-1.52,1.03-1.52,2.76v32.72c0,1.93.41,2.82,1.72,2.82,1.1,0,1.72-.69,1.72-1.86v-13.09h11.85v12.47c0,10.33-1.65,11.71-13.57,11.71s-13.57-1.17-13.57-11.71V11.57c0-10.2,1.31-11.57,13.5-11.57"></path>
    <polygon class="cls-2" points="59.38 .35 71.16 .35 71.16 21.01 74.67 21.01 74.67 .35 86.52 .35 86.52 56.28 74.67 56.28 74.67 30.1 71.16 30.1 71.16 56.28 59.38 56.28 59.38 .35"></polygon>
    <rect class="cls-1" x="89.62" y=".35" width="11.78" height="55.94"></rect>
    <polygon class="cls-2" points="104.5 .35 123.31 .35 123.31 9.37 116.28 9.37 116.28 21.01 123.31 21.01 123.31 30.1 116.28 30.1 116.28 56.28 104.5 56.28 104.5 .35"></polygon>
    <polygon class="cls-2" points="125.79 .35 144.59 .35 144.59 9.37 137.56 9.37 137.56 21.01 144.59 21.01 144.59 30.1 137.56 30.1 137.56 56.28 125.79 56.28 125.79 .35"></polygon>
    <rect class="cls-1" x="147.07" y=".35" width="11.78" height="55.94"></rect>
    <polygon class="cls-2" points="161.95 .35 172.97 .35 178.83 29 178.83 .35 189.09 .35 189.09 56.28 178.07 56.28 172.14 28.87 172.14 56.28 161.95 56.28 161.95 .35"></polygon>
    <rect class="cls-1" x="192.19" y=".35" width="11.78" height="55.94"></rect>
  </g>
</svg>
